<?xml version="1.0" encoding="utf-8"?>
<!-- Generator: Adobe Illustrator 19.0.0, SVG Export Plug-In . SVG Version: 6.00 Build 0)  -->
<svg version="1.1" xmlns="http://www.w3.org/2000/svg" xmlns:xlink="http://www.w3.org/1999/xlink" x="0px" y="0px"
	 viewBox="0 0 824 572" style="enable-background:new 0 0 824 572;" xml:space="preserve">
<style type="text/css">
	.st0{fill:#FFFFFF;}
</style>
<g id="Layer_2">
</g>
<g id="Layer_1">
	<g id="XMLID_1_">
		<g id="XMLID_260_">
			<path id="XMLID_261_" class="st0" d="M351.2,242c-3.9-0.1-8.1,0-12,0v16.4h12C360.4,258.4,360.8,242.1,351.2,242z M422.2,320.2
				c-5,0-8.3,3.6-8.3,8.2c0,4.8,3.3,8.3,8.3,8.3c5.5,0,8.3-3.2,8.3-8.3C430.5,323.8,427.4,320.2,422.2,320.2z M482.9,320.6
				c-4.8,0-8.6,2.7-8.6,7.9v22.4c0,5.4,3.8,8.1,8.6,8.1c5,0,8.8-2.7,8.8-8.1v-22.4C491.8,323.3,487.9,320.6,482.9,320.6z M365,320.2
				c-5,0-8.3,3.6-8.3,8.2c0,4.8,3.3,8.3,8.3,8.3c5.5,0,8.3-3.2,8.3-8.3C373.2,323.8,370.1,320.2,365,320.2z M414,18.7l-1-0.7
				L12.9,287L412,555.3l1,0.7l400.1-269L414,18.7z M437.5,227h16.2l15.4,37.2h0.5l15-37.2h16.2v2.5l-27.9,64h-7.1l-28.2-64V227z
				 M388.2,227h41.1v15h-24.3v9.3h22.4v14.9h-22.4v11.6h25.2v14.9h-41.9V227z M233.4,242h-23.9v14.4h21.1v15h-21.1v21.3h-17.1V227
				h41V242z M259.6,351.6c-6.6,0-12-5.4-12-12c0-6.6,5.4-12,12-12s12,5.4,12,12C271.6,346.2,266.2,351.6,259.6,351.6z M242.3,259.9
				c0-45.5,67.5-45.5,67.5,0C309.8,305.5,242.3,305.5,242.3,259.9z M336.8,372.6h-36.1v-13.7h9.8v-38.4h-8.9v-13.6h25.3v52.1h10
				V372.6z M339.2,292.7h-16.8V227h28.9c25.8,0.1,30.5,31.2,13.9,42.5l12.9,20.9v2.4h-18.8L348,273.4h-8.7V292.7z M386.8,341.4
				l-19.2,31.9h-18.7l14-23.8c-13.9,1-22.9-8.6-22.9-21.1c0-15.5,10.5-22.6,25-22.6c14.4,0,25.3,7,25.3,22.6
				C390.3,332.9,389.4,337.5,386.8,341.4z M444,341.4l-19.2,31.9h-18.7l14-23.8c-13.9,1-22.9-8.6-22.9-21.1
				c0-15.5,10.5-22.6,25-22.6c14.4,0,25.3,7,25.3,22.6C447.5,332.9,446.7,337.5,444,341.4z M507.7,351.2c0,14.4-11.1,22.7-24.7,22.7
				c-13.3,0-24.5-8.3-24.5-22.7v-23c0-14.4,11.2-22.7,24.5-22.7c13.6,0,24.7,8.3,24.7,22.7V351.2z M511.3,227h41.1v15h-24.3v9.3
				h22.4v14.9h-22.4v11.6h25.2v14.9h-41.9V227z M548.1,351.6c-6.6,0-12-5.4-12-12c0-6.6,5.4-12,12-12s12,5.4,12,12
				C560.1,346.2,554.7,351.6,548.1,351.6z M604.5,292.7l-11.3-19.4h-8.7v19.4h-16.8V227h28.9c25.8,0.1,30.5,31.2,13.9,42.5
				l12.9,20.9v2.4H604.5z M259.6,259.9c0,23.9,33,23.9,33,0C292.6,236.3,259.6,236.3,259.6,259.9z M596.5,242c-3.9-0.1-8.1,0-12,0
				v16.4h12C605.6,258.4,606.1,242.1,596.5,242z"/>
		</g>
	</g>
</g>
</svg>
